<svg width="25" height="24" viewBox="0 0 25 24" fill="currentColor" xmlns="http://www.w3.org/2000/svg">
<g clip-path="url(#clip0_2641_1091)">
<mask id="mask0_2641_1091" style="mask-type:alpha" maskUnits="userSpaceOnUse" x="4" y="4" width="17" height="16">
<path d="M5.78935 12.9984H16.9408L12.0689 17.8702C11.6795 18.2596 11.6795 18.8985 12.0689 19.2879C12.4582 19.6772 13.0872 19.6772 13.4765 19.2879L20.0556 12.7088C20.4449 12.3195 20.4449 11.6905 20.0556 11.3012L13.4865 4.71216C13.3 4.52522 13.0468 4.42017 12.7827 4.42017C12.5186 4.42017 12.2654 4.52522 12.0789 4.71216C11.6895 5.10152 11.6895 5.73047 12.0789 6.11982L16.9408 11.0017H5.78935C5.24027 11.0017 4.79102 11.4509 4.79102 12C4.79102 12.5491 5.24027 12.9984 5.78935 12.9984Z" fill="black"/>
</mask>
<g mask="url(#mask0_2641_1091)">
<rect x="0.589844" y="0.0200195" width="23.9601" height="23.9601" fill="currentColor"/>
</g>
</g>
<defs>
<clipPath id="clip0_2641_1091">
<rect width="23.9601" height="23.9601" fill="currentColor" transform="translate(0.589844 0.0200195)"/>
</clipPath>
</defs>
</svg>
