<svg width="146" height="38" viewBox="0 0 146 38" fill="none" xmlns="http://www.w3.org/2000/svg">
<path d="M19.5923 32.9765L14.6007 29.9191L22.8369 16.4416C23.2113 15.8176 23.0241 14.9441 22.4002 14.5697C21.7762 14.1953 20.9026 14.3825 20.5283 15.0064L12.292 28.5464L0 21.0589L6.98835 9.64039L11.98 12.6978L8.04908 19.1246L10.3577 20.5597L15.5366 12.0738C17.5957 8.70445 22.0258 7.64372 25.4576 9.70279C28.8269 11.7619 29.8877 16.192 27.8286 19.6238L19.5923 32.9765Z" fill="white"/>
<path d="M26.893 37.4688L21.9014 34.4114L30.1376 20.9963C33.0078 16.3166 31.5103 10.2018 26.8306 7.33153C22.2757 4.52371 16.2857 5.89643 13.3531 10.3265L8.42383 7.20674C13.0411 0.0935973 22.5877 -2.09026 29.888 2.33985C37.3132 6.89476 39.6842 16.6285 35.1293 23.9913L26.893 37.4688Z" fill="#E84B3E"/>
<path d="M142.387 15.9424H141.639V18.251H141.202V15.9424H140.453V15.5056H142.387V15.9424Z" fill="white"/>
<path d="M145.445 15.4431V18.2509H145.008V16.691L144.072 18.1885L143.136 16.691V18.2509H142.699V15.4431H142.762L144.072 17.4398L145.445 15.4431Z" fill="white"/>
<path d="M57.902 30.543C56.6541 31.3541 55.219 31.8533 53.6591 31.8533C49.4162 31.8533 45.9844 28.4215 45.9844 24.1786C45.9844 19.9356 49.4162 16.5039 53.6591 16.5039C55.219 16.5039 56.7165 17.003 57.902 17.7518V10.7634H61.3338V24.1162V31.7909H57.902V30.543ZM53.6591 28.3591C56.0301 28.3591 57.902 26.4872 57.902 24.1162C57.902 21.8075 56.0301 19.8732 53.6591 19.8732C51.288 19.8732 49.4162 21.7451 49.4162 24.1162C49.4162 26.4248 51.288 28.3591 53.6591 28.3591Z" fill="white"/>
<path d="M66.8866 28.3592H72.8143C73.5006 28.3592 74.0622 27.7976 74.0622 27.1113C74.0622 26.4249 73.5006 25.8633 72.8143 25.8633H66.8866C66.4499 25.8633 66.0131 25.8009 65.6387 25.6762C64.7028 25.4266 63.8916 24.865 63.2677 24.1163C62.8933 23.6171 62.5813 23.0555 62.3317 22.3692C62.2069 21.9948 62.1445 21.558 62.1445 21.1212C62.1445 18.9998 63.5796 17.1279 65.5763 16.5663C65.9507 16.4415 66.3875 16.3792 66.8242 16.3792H72.7519C73.1886 16.3792 73.6254 16.4415 73.9998 16.5663C75.9964 17.1279 77.4316 18.9374 77.4316 21.1212H73.9998C73.9998 20.4349 73.4382 19.8733 72.7519 19.8733H66.8242C66.1379 19.8733 65.5763 20.4349 65.5763 21.1212C65.5763 21.8076 66.1379 22.3692 66.8242 22.3692H72.7519C73.1886 22.3692 73.6254 22.4316 73.9998 22.5564C74.9357 22.8059 75.7469 23.3675 76.3708 24.1163C76.7452 24.6154 77.0572 25.177 77.3068 25.8633C77.4316 26.2377 77.494 26.6745 77.494 27.1113C77.494 29.2951 75.9964 31.1046 74.0622 31.6662C73.6254 31.791 73.251 31.8534 72.8143 31.8534H66.8866C66.4499 31.8534 66.0131 31.791 65.6387 31.6662C63.642 31.1046 62.2069 29.2951 62.2069 27.1113H65.6387C65.6387 27.7976 66.2003 28.3592 66.8866 28.3592Z" fill="white"/>
<path d="M78.4297 24.1162V12.261H81.8615V16.3791H85.3556V19.8109H81.8615V24.0538C81.8615 26.4249 83.7333 28.2968 86.1044 28.2968V31.7285C84.5445 31.7285 83.047 31.2294 81.8615 30.4182C79.8024 29.1079 78.4297 26.7992 78.4297 24.1162Z" fill="white"/>
<path d="M86.2929 16.4414H89.7246V19.8732V21.2459V24.8649C89.7246 26.7991 91.3469 28.4214 93.2812 28.4214C95.2155 28.4214 96.7754 26.7991 96.7754 24.8649V21.2459V19.8732V16.4414H100.207V24.8649C100.207 28.671 97.0874 31.8532 93.2188 31.8532C89.3503 31.8532 86.2305 28.671 86.2305 24.8649V16.4414H86.2929Z" fill="white"/>
<path d="M113.06 30.543C111.812 31.3541 110.377 31.8533 108.817 31.8533C104.574 31.8533 101.143 28.4215 101.143 24.1786C101.143 19.9356 104.574 16.5039 108.817 16.5039C110.377 16.5039 111.875 17.003 113.06 17.7518V10.7634H116.492V24.1162V31.7909H113.06V30.543ZM108.817 28.3591C111.188 28.3591 113.06 26.4872 113.06 24.1162C113.06 21.8075 111.188 19.8732 108.817 19.8732C106.446 19.8732 104.574 21.7451 104.574 24.1162C104.574 26.4248 106.446 28.3591 108.817 28.3591Z" fill="white"/>
<path d="M119.112 10.7634C120.048 10.7634 120.859 11.5122 120.859 12.5105C120.859 13.4465 120.111 14.2576 119.112 14.2576C118.176 14.2576 117.365 13.4465 117.365 12.5105C117.365 11.5122 118.176 10.7634 119.112 10.7634ZM117.365 16.4415H120.797V31.8533H117.365V16.4415Z" fill="white"/>
<path d="M137.082 24.1162C137.082 26.7992 135.709 29.1703 133.65 30.543C132.465 31.3542 130.967 31.8533 129.407 31.8533C125.164 31.8533 121.732 28.4215 121.732 24.1786C121.732 19.9357 125.164 16.5039 129.407 16.5039C130.967 16.5039 132.402 17.0031 133.65 17.7518C135.709 19.0621 137.082 21.4332 137.082 24.1162ZM129.407 28.3591C131.716 28.3591 133.65 26.4873 133.65 24.1162C133.65 21.8076 131.778 19.8733 129.407 19.8733C127.036 19.8733 125.164 21.7452 125.164 24.1162C125.164 26.4249 127.036 28.3591 129.407 28.3591Z" fill="white"/>
</svg>
